<svg width="684" height="675" xmlns="http://www.w3.org/2000/svg" version="1.1">
 <g id="Layer_1">
  <title>Layer 1</title>
  <path id="svg_4" d="m450.17602,537.75931a0.2,0.19 -59.5 0 0 -0.34,0.09q-8.12,40.8 -29.44,77.28q-13.09,22.4 -30.33,43.25q-6.09,7.37 -14.06,11.63c-32.27,17.26 -64.93,-47.38 -74.73,-68.41c-9.28,-19.94 -17.56,-40.14 -24.51,-61.2q-0.78,-2.36 -1.27,0.08q-6.94,34.51 -22.94,64.12q-9.31,17.21 -18.66,32.94q-7.48,12.58 -15.71,21.61q-3.42,3.75 -7.76,6.65c-8.73,5.84 -20.12,4.42 -28.81,-1.21c-4.73,-3.07 -9.15,-6.75 -12.95,-10.91c-15.33,-16.77 -27.33,-38.17 -37.6,-58.34c-7.56,-14.86 -15.12,-30.15 -21.98,-45.48q-14.88,-33.25 -29.72,-66.14c-12.17,-26.96 -25.11,-54.16 -39.39,-80.64q-11.18,-20.75 -23.38,-37.61q-7.3,-10.1 -10.34,-16.35q-14.16,-29.12 3.73,-59.43c4.33,-7.33 8.96,-14.35 13.94,-20.84q13.99,-18.29 26.55,-35.97q5.7,-8.02 11.91,-16.1q21.1,-27.43 41.79,-53.96q22.85,-29.31 33.82,-46.15q10.39,-15.94 21.8,-35.47q6.81,-11.64 11.79,-22.11c7.48,-15.72 16.3,-29.21 30.31,-39.1q16.39,-11.59 36.28,-12.77c30,-1.77 59.85,15.37 76.01,40.02a0.74,0.74 0 0 0 1.22,0.03q24.4,-33.48 65.37,-44.15q8.48,-2.21 18.37,-2.86q30.33,-2.01 55.87,11.56q15.11,8.03 26.28,19.26q3.78,3.79 6.44,8.38q45.57,78.73 91.52,156.72q5.02,8.51 10.07,17.34q43,75.18 79.04,135.07c10.17,16.91 16.45,37.95 15.53,57.7c-0.88,18.8 -5.47,36.74 -11.56,55.29q-2.83,8.6 -7.08,18.53q-10.18,23.75 -20.83,47.3q-11.09,24.53 -21.36,42.25q-9.97,17.22 -22.2,35.93c-11.12,16.99 -21.82,34.14 -34.83,50.36c-6.31,7.85 -14.62,16.32 -24.35,18.78c-11.52,2.92 -23.88,-4.5 -32.32,-12.82c-12.51,-12.35 -22.04,-28.31 -29.89,-44.38c-12.2,-24.98 -21.51,-51.54 -28.78,-78.76q-0.15,-0.56 -0.52,-1.01zm-380.02,-264.49c-8.78,8.12 -18.24,16.39 -22.51,28.07c-5.35,14.63 -4.1,28.39 2.3,42.23c5.85,12.65 13.17,24.08 20.9,36.25c14.95,23.55 29.9,48.63 40.58,66.94c18.48,31.66 33.93,61.62 49.74,92.48q4.47,8.73 9.96,17.57c4.66,7.5 10.56,15.14 20.34,13.36c13.27,-2.41 23.88,-19.9 29.95,-30.79q7.81,-14.02 13.83,-27.15q24.94,-54.34 43.93,-93.26q9.93,-20.35 22.93,-44.34q7.5,-13.82 14.63,-25.64q8.22,-13.61 21.09,-25.3c25.75,-23.39 58.51,-29.71 92.55,-24.94a0.45,0.45 0 0 0 0.46,-0.67c-24.61,-44.26 -50.84,-90.22 -76.76,-136.61q-4.64,-8.31 -9.9,-17.36q-17.34,-29.87 -34.31,-60.41c-0.73,-1.33 -1.71,-2.53 -2.87,-3.51c-20.82,-17.45 -52.56,-35.49 -80.37,-23.52c-15.92,6.84 -27.07,21.72 -36.54,37.1q-4.62,7.51 -10.08,17.2q-18.54,32.89 -35.58,65.61q-5.13,9.85 -9.58,17.39q-22.25,37.63 -53.17,68.49q-2.21,2.2 -11.52,10.81zm494.06,25.64q2.62,-0.4 1.36,-2.73q-13.84,-25.74 -27.38,-50.39q-4.48,-8.15 -9.46,-17.59q-12.21,-23.12 -27.09,-49.85q-26.63,-47.84 -57.34,-104.94q-1.3,-2.43 -3.26,-3.99c-28.32,-22.62 -68.57,-13.05 -83.21,20.5q-2.84,6.5 -4.92,12.63q-0.27,0.79 0.15,1.52q28.37,49.5 56.92,99.15c7.18,12.48 14.99,25.19 21.85,37.84q5.13,9.48 9.69,17.49q24.22,42.6 48.42,84.44a0.38,0.38 0 0 0 0.65,0.02q20.88,-31.69 57.34,-41.37c5.28,-1.39 10.87,-1.91 16.28,-2.73zm-28.96,267.79q12.08,-11.35 21.5,-22.84q40.31,-49.23 57.69,-108.85q2.98,-10.19 5.76,-21.32q2.51,-10.04 0.98,-19.45c-1.89,-11.62 -8.4,-24.76 -18.07,-32.15c-18.28,-13.96 -42.3,-9.61 -57.83,5.85c-0.96,0.97 -1.6,2.1 -2.28,3.27c-18.59,31.86 -37.14,63.02 -55.9,95.02c-1.9,3.25 -4.01,6.42 -5.62,9.74a1.9,1.89 43.1 0 0 0.06,1.79c14.77,25.9 29.45,53.07 44.75,77.59c2.57,4.12 4.1,8.37 8.03,11.4a0.73,0.71 -47.6 0 0 0.93,-0.05zm-174.35,-1.79a0.53,0.53 0 0 0 0.79,0.03c1.69,-1.77 3.63,-3.2 5.37,-4.99q17,-17.58 31.13,-39.05c19.27,-29.26 34.08,-60.39 43.91,-93.17c1.13,-3.74 3.45,-7.12 5.02,-10.74q7.54,-17.46 -0.5,-35.26c-9.62,-21.33 -31.9,-32.58 -54.81,-25.31c-6.32,2 -16.97,6.57 -20.42,12.67c-8.02,14.16 -21.13,37.97 -32.7,58.23q-11.83,20.71 -23.25,41.65c-1.62,2.98 -3.52,5.81 -4.93,8.87q-0.26,0.57 0.04,1.1c1.85,3.26 3.97,6.44 5.8,9.75q17.03,30.69 34.92,60.24c1.87,3.08 4.04,5.73 5.43,9.06q1.57,3.78 4.2,6.92z" fill="#110D0C"/>
 </g>
</svg>