<?xml version="1.0" standalone="no"?><!DOCTYPE svg PUBLIC "-//W3C//DTD SVG 1.1//EN" "http://www.w3.org/Graphics/SVG/1.1/DTD/svg11.dtd"><svg t="1771138463415" class="icon" viewBox="0 0 1024 1024" version="1.1" xmlns="http://www.w3.org/2000/svg" p-id="4278" xmlns:xlink="http://www.w3.org/1999/xlink" width="200" height="200"><path d="M365.714495 0.001463a365.713763 365.713763 0 0 1 365.713763 365.713763c0 33.060524-2.998853 65.535906-12.653696 95.670721l-5.778278 19.017115c-8.557702 30.793099-5.705135 42.934796 17.846832 67.803332l269.311615 269.457901a73.142753 73.142753 0 0 1 6.070849 96.548433l-6.36342 7.241133-80.676456 79.652457a73.142753 73.142753 0 0 1-103.131281-0.365713l-262.143626-262.216769c-35.547378-35.547378-56.466205-29.988529-87.259304-21.211398A365.713763 365.713763 0 0 1 20.626988 244.371399l1.682283-4.53485c27.062818-52.809067 61.513055-64.511908 105.618135-35.986235l7.314275 6.36342 113.224981 113.371267a57.197633 57.197633 0 0 0 74.751893 5.266278l5.851421-5.119993a56.246777 56.246777 0 0 0 0.292571-79.579315L216.430137 131.219561c-32.255954-40.66737-25.819392-79.213601 21.430826-107.446704l10.239985-4.388565A363.22691 363.22691 0 0 1 365.714495 0.001463z m0 87.771303c-27.135961 0-53.394209 3.876566-78.189603 11.117698L381.074473 192.366902c47.981646 47.981646 50.322214 124.34268 7.16799 175.10375l-7.533704 8.118846a130.267242 130.267242 0 0 1-183.954023-0.292571L101.303444 279.772492a277.94246 277.94246 0 0 0 362.495482 346.038363l15.359978-6.217134c18.505116-6.948562 36.205663-8.77713 53.028496-5.485707 16.822833 3.291424 32.329097 11.70284 46.372505 24.941679l289.425872 289.499015 59.830772-59.099344-288.987016-288.913873a125.659249 125.659249 0 0 1-23.405681-49.737072 98.962144 98.962144 0 0 1 3.657138-50.468499A277.94246 277.94246 0 0 0 365.714495 87.772766z" fill="#000000" stroke="#FFFFFF" stroke-width="2" p-id="4279"></path></svg>