<?xml version="1.0" standalone="no"?><!DOCTYPE svg PUBLIC "-//W3C//DTD SVG 1.1//EN" "http://www.w3.org/Graphics/SVG/1.1/DTD/svg11.dtd"><svg t="1771128016865" class="icon" viewBox="0 0 1024 1024" version="1.1" xmlns="http://www.w3.org/2000/svg" p-id="1567" xmlns:xlink="http://www.w3.org/1999/xlink" width="200" height="200"><path d="M512 0q-14.857143 0-25.714286 10.857143T475.428571 36.571429v475.428571q0 14.857143 10.857143 25.714286T512 548.571429q14.857143 0 25.714286-10.857143T548.571429 512V36.571429q0-14.857143-10.857143-25.714286T512 0z m195.428571 38.857143q-13.714286-5.714286-27.428571 0t-20 20Q653.714286 73.142857 660 86.857143T680 106.285714q78.857143 33.142857 140.571429 93.714286t94.857142 140.571429q35.428571 81.142857 35.428572 171.428571 0 118.857143-59.428572 221.714286-58.285714 99.428571-157.714285 157.714285-102.857143 59.428571-221.714286 59.428572t-221.714286-59.428572q-99.428571-58.285714-157.714285-157.714285-59.428571-102.857143-59.428572-221.714286 0-90.285714 35.428572-171.428571 33.142857-80 94.857142-140.571429t140.571429-93.714286q13.714286-5.714286 20-19.428571t0-28Q357.714286 44.571429 344 38.857143t-27.428571 0Q222.857143 77.714286 151.428571 148.571429T41.142857 312q-41.142857 94.857143-41.142857 200 0 139.428571 69.714286 258.285714 68.571429 115.428571 184 184 118.857143 69.714286 258.285714 69.714286t258.285714-69.714286q115.428571-68.571429 184-184 69.714286-118.857143 69.714286-258.285714 0-105.142857-41.142857-200-38.857143-92.571429-110.285714-163.428571T707.428571 38.857143z" fill="#000000" p-id="1568"></path></svg>